<?xml version="1.0" encoding="iso-8859-1"?>
<!-- Generator: Adobe Illustrator 18.0.0, SVG Export Plug-In . SVG Version: 6.00 Build 0)  -->
<!DOCTYPE svg PUBLIC "-//W3C//DTD SVG 1.1//EN" "http://www.w3.org/Graphics/SVG/1.1/DTD/svg11.dtd">
<svg version="1.1" id="Capa_1" xmlns="http://www.w3.org/2000/svg" xmlns:xlink="http://www.w3.org/1999/xlink" x="0px" y="0px"
	 viewBox="0 0 297.503 297.503" style="enable-background:new 0 0 297.503 297.503;" xml:space="preserve">
<g>
	<g id="XMLID_50_">
		<g>
			<path style="fill:#DEC978;" d="M253.381,59.681c1.49,1.49,1.49,3.92,0,5.42c-0.98,0.97-2.12,1.12-2.71,1.12s-1.73-0.15-2.71-1.12
				c-1.49-1.5-1.49-3.93,0-5.42c0.98-0.98,2.12-1.12,2.71-1.12S252.401,58.701,253.381,59.681z"/>
			<path style="fill:#DEC978;" d="M221.551,103.081l-5.69,4.46c0.01-2.87-0.19-5.75-0.61-8.63L221.551,103.081z"/>
			<path style="fill:#DEC978;" d="M195.301,99.431c2.08,10.22,0.06,20.63-5.69,29.33c-7.25,10.97-19.44,17.52-32.61,17.52
				c-3.82,0-7.6-0.56-11.21-1.65s-7.07-2.71-10.28-4.83c-8.7-5.75-14.64-14.55-16.72-24.77c-2.09-10.22-0.07-20.63,5.69-29.33
				c7.25-10.97,19.44-17.52,32.61-17.52c7.64,0,15.07,2.24,21.48,6.48c0,0,0,0,0,0.01l0.02,0.01
				C187.281,80.431,193.211,89.221,195.301,99.431z M175.921,93.631c0-2.6-1.06-5.14-2.89-6.99c-1.85-1.84-4.39-2.9-6.99-2.9
				c-2.6,0-5.15,1.06-6.99,2.9c-1.84,1.84-2.9,4.39-2.9,6.99c0,2.61,1.06,5.14,2.9,6.98c1.84,1.84,4.38,2.9,6.99,2.9
				c2.6,0,5.15-1.06,6.99-2.9C174.861,98.771,175.921,96.221,175.921,93.631z"/>
			<path style="fill:#DEC978;" d="M172.721,163.921c0.66,3.43,1,6.95,1,10.53c0,14.78-5.75,28.68-16.21,39.14
				c-9.88,9.87-40.78,15.54-84.8,15.54c-10.3,0-19.47-0.32-26.06-0.64c0.7-4.08,1.56-8.66,2.56-13.54c0.75,0.01,1.52,0.02,2.29,0.02
				c82.17,0,106.03-33.58,112.7-49.36C167.101,165.251,169.941,164.681,172.721,163.921z"/>
			<path d="M296.741,218.271c1.73,5.18-1.07,10.78-6.25,12.5l-48.92,16.31c-1.01,0.34-2.07,0.51-3.13,0.51h-8.75l12.85,12.85h44.83
				c5.45,0,9.88,4.42,9.88,9.88c0,5.46-4.43,9.88-9.88,9.88h-48.93c-2.62,0-5.13-1.04-6.99-2.89l-29.72-29.72h-59.76l-112.82,32.23
				c-0.91,0.26-1.83,0.39-2.72,0.39c-4.3,0-8.26-2.83-9.5-7.17c-1.5-5.25,1.54-10.72,6.79-12.22l41.88-11.97
				c-17.78-0.23-30.6-1.25-31.2-1.29c-2.71-0.22-5.21-1.55-6.91-3.67c-1.7-2.12-2.46-4.84-2.09-7.54
				c0.37-2.66,1.66-11.58,4.01-23.48c-15.79-3.46-25.27-11.22-28.28-23.18c-7.19-28.68,31.56-67.29,45.71-74.86
				c13.41-7.18,28.49-14.21,52.07-16.6c1.27-8.27,4.32-16.25,9.08-23.44c10.92-16.51,29.27-26.37,49.1-26.37
				c11.53,0,22.73,3.37,32.39,9.76c13.6,8.99,54.41,35.97,54.41,35.97c2.65,1.76,4.3,4.67,4.43,7.85c0.12,3.17-1.28,6.22-3.78,8.18
				c0,0-30.78,21.8-39.39,30.87c-4.7,4.96-8.72,10.37-14.14,14.21c1.63,6.18,2.48,12.62,2.48,19.19c0,20.06-7.81,38.93-22,53.11
				c-0.09,0.09-0.18,0.17-0.27,0.26h65.62l47.4-15.8C289.421,210.291,295.021,213.091,296.741,218.271z M215.861,107.541l5.69-4.46
				l-6.3-4.17C215.671,101.791,215.871,104.671,215.861,107.541z M189.611,128.761c5.75-8.7,7.77-19.11,5.69-29.33
				c-2.09-10.21-8.02-19-16.71-24.75l-0.02-0.01c0-0.01,0-0.01,0-0.01c-6.41-4.24-13.84-6.48-21.48-6.48
				c-13.17,0-25.36,6.55-32.61,17.52c-5.76,8.7-7.78,19.11-5.69,29.33c2.08,10.22,8.02,19.02,16.72,24.77
				c3.21,2.12,6.67,3.74,10.28,4.83s7.39,1.65,11.21,1.65C170.171,146.281,182.361,139.731,189.611,128.761z M173.721,174.451
				c0-3.58-0.34-7.1-1-10.53c-2.78,0.76-5.62,1.33-8.52,1.69c-6.67,15.78-30.53,49.36-112.7,49.36c-0.77,0-1.54-0.01-2.29-0.02
				c-1,4.88-1.86,9.46-2.56,13.54c6.59,0.32,15.76,0.64,26.06,0.64c44.02,0,74.92-5.67,84.8-15.54
				C167.971,203.131,173.721,189.231,173.721,174.451z M134.421,173.151c3.62-3.13,6.21-6.2,8.09-8.92
				c-6.32-1.62-12.37-4.28-17.9-7.94c-13.11-8.67-22.05-21.91-25.19-37.31c-0.06-0.3-0.11-0.61-0.16-0.91
				c-19.13,2.19-31.41,7.93-43.09,14.19c-11.45,6.13-39.58,37.8-35.86,52.62c1.64,6.56,13.01,10.32,31.19,10.32
				C99.001,195.201,122.811,183.211,134.421,173.151z"/>
			<path d="M287.371,17.291c4.64,0,8.4,3.76,8.4,8.4s-3.76,8.41-8.4,8.41h-16.06v28.29c-0.13,5.32-2.27,10.81-6.05,14.59
				c-3.89,3.89-9.08,6.04-14.59,6.04s-10.69-2.15-14.59-6.04c-3.89-3.9-6.04-9.08-6.04-14.59s2.15-10.69,6.04-14.59
				c3.9-3.9,9.08-6.04,14.59-6.04c1.3,0,2.58,0.12,3.83,0.36v-16.43c0-4.64,3.76-8.4,8.4-8.4H287.371z M253.381,65.101
				c1.49-1.5,1.49-3.93,0-5.42c-0.98-0.98-2.12-1.12-2.71-1.12s-1.73,0.14-2.71,1.12c-1.49,1.49-1.49,3.92,0,5.42
				c0.98,0.97,2.12,1.12,2.71,1.12S252.401,66.071,253.381,65.101z"/>
			<path d="M173.031,86.641c1.83,1.85,2.89,4.39,2.89,6.99c0,2.59-1.06,5.14-2.89,6.98c-1.84,1.84-4.39,2.9-6.99,2.9
				c-2.61,0-5.15-1.06-6.99-2.9c-1.84-1.84-2.9-4.37-2.9-6.98c0-2.6,1.06-5.15,2.9-6.99c1.84-1.84,4.39-2.9,6.99-2.9
				C168.641,83.741,171.181,84.801,173.031,86.641z"/>
			<path style="fill:#E98547;" d="M142.511,164.231c-1.88,2.72-4.47,5.79-8.09,8.92c-11.61,10.06-35.42,22.05-82.92,22.05
				c-18.18,0-29.55-3.76-31.19-10.32c-3.72-14.82,24.41-46.49,35.86-52.62c11.68-6.26,23.96-12,43.09-14.19
				c0.05,0.3,0.1,0.61,0.16,0.91c3.14,15.4,12.08,28.64,25.19,37.31C130.141,159.951,136.191,162.611,142.511,164.231z"/>
		</g>
		<g>
		</g>
	</g>
</g>
<g>
</g>
<g>
</g>
<g>
</g>
<g>
</g>
<g>
</g>
<g>
</g>
<g>
</g>
<g>
</g>
<g>
</g>
<g>
</g>
<g>
</g>
<g>
</g>
<g>
</g>
<g>
</g>
<g>
</g>
</svg>
