<?xml version="1.0" encoding="iso-8859-1"?>
<!-- Generator: Adobe Illustrator 19.0.0, SVG Export Plug-In . SVG Version: 6.00 Build 0)  -->
<svg version="1.1" id="Layer_1" xmlns="http://www.w3.org/2000/svg" xmlns:xlink="http://www.w3.org/1999/xlink" x="0px" y="0px"
	 viewBox="0 0 384.891 384.891" style="enable-background:new 0 0 384.891 384.891;" xml:space="preserve">
<g>
	<g>
		<rect x="13.438" y="207.825" style="fill:#CAA977;" width="214.023" height="154.009"/>
		<rect y="170.511" style="fill:#DFCAA3;" width="227.461" height="37.314"/>
		<rect x="227.461" y="207.825" style="fill:#A88D63;" width="143.992" height="154.009"/>
		<rect x="227.461" y="170.511" style="fill:#CAA977;" width="157.43" height="37.314"/>
		<path style="fill:#333E48;" d="M332.096,230.972c6.074,0,11,4.925,11,11s-4.926,11-11,11H285.82c-6.076,0-11-4.925-11-11
			s4.924-11,11-11H332.096z"/>
		<rect x="13.437" y="284.829" style="fill:#D16A70;" width="95.963" height="40.9"/>
	</g>
	<g>
		<rect x="95.475" y="51.815" style="fill:#CAA977;" width="164.949" height="118.695"/>
		<rect x="85.117" y="23.057" style="fill:#DFCAA3;" width="175.307" height="28.759"/>
		<rect x="260.424" y="51.815" style="fill:#A88D63;" width="110.977" height="118.695"/>
		<rect x="260.424" y="23.057" style="fill:#CAA977;" width="121.332" height="28.759"/>
		<path style="fill:#333E48;" d="M341.066,69.654c4.682,0,8.478,3.796,8.478,8.478c0,4.683-3.797,8.479-8.478,8.479h-35.664
			c-4.684,0-8.479-3.796-8.479-8.479c0-4.682,3.795-8.478,8.479-8.478C305.402,69.654,341.066,69.654,341.066,69.654z"/>
		<rect x="95.475" y="111.163" style="fill:#D16A70;" width="73.959" height="31.521"/>
	</g>
</g>
<g>
</g>
<g>
</g>
<g>
</g>
<g>
</g>
<g>
</g>
<g>
</g>
<g>
</g>
<g>
</g>
<g>
</g>
<g>
</g>
<g>
</g>
<g>
</g>
<g>
</g>
<g>
</g>
<g>
</g>
</svg>
