<?xml version="1.0" encoding="iso-8859-1"?>
<!-- Generator: Adobe Illustrator 19.0.0, SVG Export Plug-In . SVG Version: 6.00 Build 0)  -->
<svg version="1.1" id="Capa_1" xmlns="http://www.w3.org/2000/svg" xmlns:xlink="http://www.w3.org/1999/xlink" x="0px" y="0px"
	 viewBox="0 0 57 57" style="enable-background:new 0 0 57 57;" xml:space="preserve">
<g>
	<g>
		<rect x="25" y="27" width="3" height="2"/>
		<path d="M52,52h-6V4.86c0-0.488-0.353-0.905-0.835-0.986l-23-3.86c-0.289-0.049-0.586,0.033-0.811,0.223S21,0.706,21,1v1H11
			c-0.553,0-1,0.448-1,1v50H5v2h6h10v1c0,0.287,0.123,0.56,0.339,0.75C21.523,56.912,21.758,57,22,57
			c0.041,0,0.083-0.002,0.125-0.008l23-2.895c0.11-0.014,0.211-0.051,0.307-0.098H52V52z M12,53V4h9v49H12z M23,54v-1V3V2.182
			l21,3.524V52v0.224l-21,2.643V54z"/>
	</g>
</g>
<g>
</g>
<g>
</g>
<g>
</g>
<g>
</g>
<g>
</g>
<g>
</g>
<g>
</g>
<g>
</g>
<g>
</g>
<g>
</g>
<g>
</g>
<g>
</g>
<g>
</g>
<g>
</g>
<g>
</g>
</svg>
