<svg width="233" height="234" viewBox="0 0 233 234" fill="none" xmlns="http://www.w3.org/2000/svg">
<g clip-path="url(#clip0_24_74)">
<path d="M59.2278 126.562H207.68L207.685 126.556C207.265 126.177 206.871 125.77 206.498 125.349C204.892 123.522 203.699 121.336 203.041 118.931L200.186 108.527C195.833 92.6321 181.441 81.6241 165.033 81.6241H103.465C85.9535 81.6241 70.4113 92.8766 64.8766 109.558L59.2278 126.562Z" fill="#CCCCCC"/>
<path d="M59.2278 126.562H144.008L122.822 81.6241H103.465C85.9535 81.6241 70.4113 92.8766 64.8767 109.558L59.2278 126.562Z" fill="#E6E6E6"/>
<path d="M106.753 54.4117H128.776L131.314 81.6259H104.215L106.753 54.4117Z" fill="#F95428"/>
<path d="M162.836 186.475C162.805 185.996 162.789 185.512 162.789 185.028C162.789 172.74 172.709 162.778 184.944 162.778C197.185 162.778 207.105 172.74 207.105 185.028C207.105 185.512 207.089 185.996 207.058 186.475C206.317 198.092 196.704 207.283 184.945 207.283C173.191 207.283 163.577 198.092 162.836 186.475Z" fill="#666666"/>
<path d="M27.1793 186.475C27.1484 185.996 27.1329 185.512 27.1329 185.028C27.1329 172.74 37.0522 162.778 49.2878 162.778C61.5289 162.778 71.4482 172.74 71.4482 185.028C71.4482 185.512 71.4328 185.996 71.4018 186.475C70.6605 198.092 61.047 207.283 49.2883 207.283C37.5337 207.283 27.9202 198.092 27.1793 186.475Z" fill="#666666"/>
<path d="M27.1326 185.028C27.1326 172.74 37.0519 162.778 49.2875 162.778C61.5286 162.778 71.4479 172.74 71.4479 185.028C71.4479 185.512 71.4325 185.996 71.4015 186.475H162.836C162.805 185.996 162.789 185.512 162.789 185.028C162.789 172.74 172.709 162.778 184.944 162.778C197.186 162.778 207.105 172.74 207.105 185.028C207.105 185.512 207.089 185.996 207.058 186.475H222.362V144.541C222.362 137.993 218.434 132.091 212.412 129.588C210.65 128.859 209.059 127.823 207.686 126.558L207.681 126.563H59.2282L21.1524 129.395C11.3474 130.123 4.31963 139.211 6.05074 148.933L12.7208 186.475H27.1799C27.1485 185.996 27.1326 185.512 27.1326 185.028Z" fill="#F2F2F2"/>
<path d="M184.947 194.159C189.958 194.159 194.036 190.064 194.036 185.031C194.036 179.997 189.959 175.902 184.947 175.902C179.934 175.902 175.857 179.997 175.857 185.031C175.857 190.063 179.934 194.159 184.947 194.159Z" fill="#CCCCCC"/>
<path d="M49.2893 194.159C54.302 194.159 58.379 190.064 58.379 185.031C58.379 179.997 54.3015 175.902 49.2893 175.902C44.2776 175.902 40.2001 179.997 40.2001 185.031C40.2005 190.063 44.278 194.159 49.2893 194.159Z" fill="#CCCCCC"/>
<path d="M117.118 137.034L110.346 148.304L97.5803 151.289L106.16 161.24L105.043 174.355L117.118 169.235L129.193 174.355L128.075 161.24L136.655 151.289L123.89 148.304L117.118 137.034Z" fill="#CCCCCC"/>
<path d="M21.152 129.393C11.3469 130.121 4.31914 139.209 6.05025 148.931L12.7203 186.473H27.1794C27.1485 185.994 27.133 185.51 27.133 185.026C27.133 172.738 37.0523 162.776 49.288 162.776V127.301L21.152 129.393Z" fill="#4288BC"/>
<path d="M184.944 126.562V162.776C197.186 162.776 207.105 172.738 207.105 185.026C207.105 185.51 207.089 185.994 207.058 186.473H222.362V144.539C222.362 137.991 218.434 132.089 212.412 129.586C210.65 128.857 209.059 127.821 207.686 126.556L207.681 126.562H184.944Z" fill="#4288BC"/>
<path d="M197.974 185.312C197.974 192.499 192.153 198.344 184.998 198.344C177.842 198.344 172.021 192.498 172.021 185.312C172.021 178.127 177.842 172.28 184.998 172.28C192.153 172.28 197.974 178.127 197.974 185.312ZM179.795 185.312C179.795 188.194 182.129 190.537 184.998 190.537C187.866 190.537 190.2 188.193 190.2 185.312C190.2 182.431 187.866 180.087 184.998 180.087C182.129 180.087 179.795 182.432 179.795 185.312Z" fill="black"/>
<path d="M49.3408 172.28C56.4964 172.28 62.3173 178.126 62.3173 185.312C62.3173 192.499 56.4964 198.344 49.3408 198.344C42.1856 198.344 36.3647 192.498 36.3647 185.312C36.3647 178.127 42.1865 172.28 49.3408 172.28ZM49.3408 190.538C52.2091 190.538 54.5436 188.194 54.5436 185.313C54.5436 182.432 52.2096 180.087 49.3408 180.087C46.472 180.087 44.1388 182.431 44.1388 185.313C44.1388 188.194 46.4724 190.538 49.3408 190.538Z" fill="black"/>
<path d="M3.8877 170.364H5.91098L2.27537 149.9C1.2569 144.182 2.70724 138.27 6.2541 133.68C9.80142 129.089 15.1458 126.21 20.9162 125.781L56.4103 123.142L61.2401 108.605C67.0164 91.1952 82.6696 79.2274 100.717 78.0976L102.934 54.328C103.121 52.3221 104.798 50.7883 106.804 50.7883H128.827C130.833 50.7883 132.51 52.3216 132.698 54.328L134.905 78.0012H165.085C174.362 78.0012 183.429 81.2493 190.617 87.1468C192.279 88.5111 192.526 90.9703 191.167 92.6394C189.81 94.3085 187.362 94.5562 185.698 93.192C180.893 89.2492 175.048 86.7794 168.928 86.044V122.938H200.303C199.923 122.064 199.597 121.166 199.347 120.249L196.491 109.843C195.739 107.098 194.636 104.465 193.213 102.016C192.13 100.154 192.756 97.7636 194.609 96.6768C196.462 95.5895 198.843 96.2179 199.926 98.0794C201.689 101.113 203.055 104.374 203.985 107.77L206.841 118.176C207.332 119.968 208.238 121.652 209.454 123.034C209.758 123.378 210.048 123.673 210.364 123.959C211.433 124.943 212.637 125.716 213.951 126.258C221.454 129.378 226.301 136.663 226.301 144.818V170.362H229.113C231.26 170.362 233 172.11 233 174.266C233 176.422 231.26 178.169 229.113 178.169H226.3V186.753C226.3 188.909 224.561 190.656 222.414 190.656H210.494C208.021 202.581 197.454 211.465 184.996 211.465C172.542 211.465 161.977 202.58 159.504 190.659H99.9152C97.7681 190.659 96.0284 188.911 96.0284 186.755C96.0284 184.6 97.7681 182.852 99.9152 182.852H159.072C160.188 170.873 169.378 161.216 181.109 159.445V130.745H117.794C117.782 130.745 117.771 130.746 117.759 130.746C117.747 130.746 117.736 130.745 117.724 130.745H59.4229L53.2266 131.205V159.445C64.9599 161.215 74.1524 170.873 75.2683 182.852H88.2539C90.4009 182.852 92.1407 184.6 92.1407 186.755C92.1407 188.911 90.4009 190.659 88.2539 190.659H74.8359C72.3617 202.582 61.7953 211.465 49.3385 211.465C36.8839 211.465 26.3184 202.58 23.846 190.656H12.7703C10.8872 190.656 9.2749 189.3 8.94361 187.438L7.29713 178.169H3.88634C1.73929 178.169 -0.000460739 176.422 -0.000460739 174.266C-0.000460739 172.11 1.74111 170.364 3.8877 170.364ZM125.288 58.5971H110.344L108.534 78.0026H127.096L125.288 58.5971ZM161.154 85.8096L121.646 85.8118V106.475C121.646 108.63 119.907 110.378 117.76 110.378C115.613 110.378 113.873 108.63 113.873 106.475V85.8118L103.518 85.8096C87.6559 85.8096 73.63 95.9625 68.6155 111.076L64.6736 122.94H113.872V118.706C113.872 116.55 115.612 114.803 117.759 114.803C119.906 114.803 121.646 116.55 121.646 118.706V122.94H161.154L161.154 85.8096ZM218.526 178.172H210.049C210.476 179.682 210.774 181.245 210.924 182.852H218.526V178.172ZM166.728 185.308C166.728 185.705 166.74 186.107 166.766 186.505C167.38 196.125 175.387 203.66 184.996 203.66C194.607 203.66 202.617 196.124 203.231 186.505C203.231 186.503 203.231 186.501 203.231 186.499C203.257 186.112 203.269 185.712 203.269 185.309C203.269 175.192 195.072 166.962 184.995 166.962C174.923 166.962 166.728 175.192 166.728 185.308ZM188.883 159.447C196.096 160.535 202.346 164.607 206.354 170.365H218.526V144.821C218.526 139.835 215.562 135.381 210.982 133.478C209.309 132.786 207.746 131.865 206.324 130.748H188.882V159.447H188.883ZM21.4905 133.568C17.8581 133.838 14.6284 135.578 12.3954 138.467C10.1632 141.355 9.28764 144.928 9.92839 148.528L13.8075 170.365H27.9854C31.9919 164.608 38.2405 160.535 45.4526 159.447V131.786L21.4905 133.568ZM31.1099 186.503C31.1099 186.504 31.1099 186.505 31.1099 186.506C31.7238 196.125 39.7309 203.66 49.3398 203.66C58.951 203.66 66.9608 196.125 67.5747 186.503C67.6002 186.107 67.613 185.705 67.613 185.308C67.613 175.192 59.4157 166.962 49.3394 166.962C39.2663 166.962 31.0712 175.192 31.0712 185.308C31.0708 185.705 31.0844 186.107 31.1099 186.503ZM16.026 182.852H23.4155C23.5652 181.245 23.8633 179.681 24.2906 178.172H15.1945L16.026 182.852Z" fill="black"/>
<path d="M117.707 40.4864C115.847 40.4864 114.339 38.9718 114.339 37.1035V25.9177C114.339 24.0494 115.847 22.5348 117.707 22.5348C119.568 22.5348 121.076 24.0494 121.076 25.9177V37.103C121.076 38.9718 119.568 40.4864 117.707 40.4864Z" fill="black"/>
<path d="M97.7558 48.8761C96.8939 48.8761 96.0316 48.5457 95.3735 47.8853L87.4984 39.9755C86.1832 38.6542 86.1832 36.5121 87.4989 35.1913C88.8136 33.87 90.947 33.8705 92.2626 35.1913L100.138 43.1011C101.453 44.4224 101.453 46.5645 100.137 47.8853C99.4801 48.5461 98.6177 48.8761 97.7558 48.8761Z" fill="black"/>
<path d="M140.104 47.7312C139.446 48.3916 138.584 48.7221 137.722 48.7221C136.86 48.7221 135.998 48.3916 135.34 47.7312C134.025 46.4104 134.025 44.2679 135.34 42.947L143.215 35.0372C144.53 33.7164 146.664 33.716 147.979 35.0372C149.294 36.358 149.294 38.5006 147.979 39.8214L140.104 47.7312Z" fill="black"/>
<path d="M92.9243 65.5938C92.9243 67.4621 91.4162 68.9767 89.5558 68.9767H78.4183C76.5579 68.9767 75.0498 67.4621 75.0498 65.5938C75.0498 63.7254 76.5579 62.2108 78.4183 62.2108H89.5558C91.4162 62.2108 92.9243 63.7254 92.9243 65.5938Z" fill="black"/>
<path d="M157.214 68.7587H146.076C144.216 68.7587 142.708 67.2441 142.708 65.3758C142.708 63.5075 144.216 61.9929 146.076 61.9929H157.214C159.075 61.9929 160.583 63.5075 160.583 65.3758C160.583 67.2441 159.075 68.7587 157.214 68.7587Z" fill="black"/>
<path d="M96.7506 147.77L107.918 145.158L113.841 135.299C114.545 134.128 115.808 133.412 117.169 133.412C118.531 133.412 119.793 134.128 120.497 135.299L126.422 145.158L137.589 147.77C138.915 148.08 139.983 149.064 140.404 150.365C140.825 151.666 140.537 153.093 139.646 154.126L132.14 162.831L133.118 174.305C133.234 175.667 132.632 176.992 131.53 177.795C130.855 178.288 130.054 178.541 129.245 178.541C128.734 178.541 128.22 178.439 127.734 178.233L117.171 173.754L106.608 178.233C105.354 178.765 103.913 178.598 102.812 177.795C101.71 176.992 101.108 175.667 101.224 174.304L102.201 162.831L94.6964 154.126C93.8049 153.092 93.5172 151.665 93.9382 150.365C94.3564 149.065 95.4245 148.08 96.7506 147.77ZM109.15 158.967C109.837 159.764 110.174 160.805 110.084 161.855L109.516 168.526L115.657 165.922C116.624 165.512 117.714 165.512 118.681 165.922L124.822 168.526L124.254 161.855C124.164 160.805 124.502 159.763 125.188 158.967L129.552 153.907L123.06 152.388C122.038 152.149 121.156 151.506 120.614 150.604L117.169 144.872L113.726 150.604C113.183 151.506 112.301 152.149 111.279 152.388L104.787 153.907L109.15 158.967Z" fill="black"/>
<path d="M19.9565 162.361C19.7253 162.403 19.495 162.422 19.2689 162.422C17.4217 162.422 15.7825 161.095 15.4471 159.204L13.4307 147.861C13.053 145.739 14.4605 143.712 16.5734 143.333C18.6882 142.954 20.7065 144.367 21.0828 146.489L23.0992 157.832C23.477 159.954 22.0694 161.982 19.9565 162.361Z" fill="black"/>
</g>
<defs>
<clipPath id="clip0_24_74">
<rect width="233" height="234" fill="white" transform="matrix(-1 0 0 1 233 0)"/>
</clipPath>
</defs>
</svg>
