<svg width="154" height="206" viewBox="0 0 154 206" fill="none" xmlns="http://www.w3.org/2000/svg">
<path d="M37.5301 4.41666C51.0853 4.41666 62.1134 14.3232 62.1134 26.5C62.1134 38.6767 51.0853 48.5833 37.5301 48.5833C23.9748 48.5833 12.9467 38.6767 12.9467 26.5C12.9467 14.3232 23.9748 4.41666 37.5301 4.41666ZM49.8217 23.1875C49.8214 22.3087 49.4325 21.466 48.7405 20.8447C48.3978 20.5372 47.9911 20.2932 47.5435 20.1268C47.0959 19.9604 46.6162 19.8749 46.1318 19.875C45.6474 19.8751 45.1677 19.961 44.7203 20.1277C44.2728 20.2943 43.8662 20.5385 43.5238 20.8463C43.1814 21.1541 42.9098 21.5195 42.7246 21.9216C42.5394 22.3236 42.4441 22.7546 42.4443 23.1897C42.4446 24.0685 42.8336 24.9112 43.5256 25.5325C44.2176 26.1537 45.1559 26.5025 46.1342 26.5022C47.1125 26.5019 48.0507 26.1525 48.7422 25.5309C49.4337 24.9093 49.8221 24.0663 49.8217 23.1875ZM37.5301 39.75C41.6035 39.75 44.9051 37.2789 44.9051 34.2292C44.9051 31.1795 41.6035 28.7083 37.5301 28.7083C33.4566 28.7083 30.1551 31.1795 30.1551 34.2292C30.1551 37.2789 33.4566 39.75 37.5301 39.75ZM28.9431 26.4691C29.4333 26.4803 29.921 26.4033 30.3774 26.2425C30.8339 26.0818 31.2499 25.8405 31.601 25.533C31.952 25.2255 32.231 24.858 32.4214 24.4521C32.6118 24.0463 32.7098 23.6102 32.7096 23.1698C32.7095 22.7294 32.6111 22.2934 32.4204 21.8876C32.2297 21.4819 31.9505 21.1145 31.5992 20.8072C31.248 20.4999 30.8317 20.259 30.3751 20.0985C29.9185 19.938 29.4308 19.8612 28.9407 19.8728C27.9834 19.8953 27.0737 20.2528 26.4056 20.8691C25.7375 21.4854 25.3638 22.3118 25.3641 23.172C25.3645 24.0322 25.7388 24.8584 26.4073 25.4742C27.0759 26.0901 27.9858 26.4471 28.9431 26.4691Z" fill="black"/>
<path d="M90.2764 130.308C90.5546 128.819 90.7456 127.243 90.8028 125.556C91.9048 94.9271 78.7247 69.8468 58.968 53.7235C47.2172 44.1292 36.0719 54.5895 33.2405 67.928C25.9576 60.5677 13.3448 71.5821 19.0184 83.6806C19.2257 84.1205 19.4385 84.5639 19.6512 85.0072C13.9558 84.9795 -4.1942 84.9068 0.887476 85.0141C6.89384 85.1458 21.3069 105.671 21.3069 105.671V88.3531C25.7339 96.9499 31.3939 104.992 39.817 106.208C43.6576 106.766 46.8298 105.256 49.4375 102.613C52.7298 107.729 54.4074 113.471 54.7347 120.364C51.8515 120.309 48.9602 120.458 46.0416 120.891C35.9737 122.397 29.76 125.213 27.7252 138.586C24.6647 158.759 32.9268 173.493 41.8382 188.913C49.0884 201.455 65.7763 189.301 58.4307 176.583C52.4243 166.192 46.3825 157.654 46.6307 145.58C52.5007 144.447 58.3379 144.752 64.2979 145.476C67.2138 147.069 70.5034 147.713 73.7603 147.391C78.6183 168.017 87.8433 186.388 99.7906 202.058C108.426 213.387 122.002 196.093 113.38 184.812C101.534 169.254 93.5987 151.253 90.2764 130.308Z" fill="#010002"/>
<path d="M62.6388 50.4094C62.6388 50.4094 99.8569 76.9271 95.4601 116.011C85.8219 148.597 127.906 182.16 150.789 107.005C150.787 107.005 179.925 4.00345 62.6388 50.4094ZM125.652 111.737V118.02H120.621V112.107C118.291 111.816 115.974 110.795 114.476 109.382L113.769 108.706L115.594 101.924L116.819 103.008C118.406 104.418 120.457 105.232 122.422 105.232C124.828 105.232 126.433 103.573 126.433 101.11C126.433 99.4478 125.936 97.6432 122.253 95.662C118.364 93.6392 114.379 90.6917 114.379 84.277C114.379 79.1196 116.931 75.0983 120.932 73.7579V67.6515H125.917V73.3422C127.823 73.5985 129.488 74.3017 130.987 75.4689L131.823 76.127L129.921 82.8049L128.748 81.9182C128.06 81.3952 126.436 80.1587 123.858 80.1587C121.317 80.1587 120.413 81.9321 120.413 83.5912C120.413 85.3888 121.085 86.5526 125.081 88.7555C128.537 90.6258 132.517 93.6808 132.517 100.709C132.509 106.032 129.79 110.334 125.652 111.737Z" fill="#010002"/>
</svg>
